Coordinates
version=1
nRows=5
nColumns=40
inDegrees=yes

Units are S.I. units (second, meters, Newtons, ...)
If the header above contains a line with 'inDegrees', this indicates whether rotational values are in degrees (yes) or radians (no).

endheader
time	pelvis_tilt	pelvis_list	pelvis_rotation	pelvis_tx	pelvis_ty	pelvis_tz	hip_flexion_r	hip_adduction_r	hip_rotation_r	knee_angle_r	knee_angle_r_beta	ankle_angle_r	subtalar_angle_r	mtp_angle_r	hip_flexion_l	hip_adduction_l	hip_rotation_l	knee_angle_l	knee_angle_l_beta	ankle_angle_l	subtalar_angle_l	mtp_angle_l	lumbar_extension	lumbar_bending	lumbar_rotation	arm_flex_r	arm_add_r	arm_rot_r	elbow_flex_r	pro_sup_r	wrist_flex_r	wrist_dev_r	arm_flex_l	arm_add_l	arm_rot_l	elbow_flex_l	pro_sup_l	wrist_flex_l	wrist_dev_l
      4.97500000	     -4.63430203	      0.24326591	      3.76428439	     -0.39392946	      0.91613183	     -1.00019708	     57.56434500	     -6.76828989	      4.92348845	     34.98547912	      0.61061180	      7.65595966	      0.00000000	      0.00000000	     43.77636927	      0.14656244	     -7.03503268	     63.59136215	      1.10987865	     11.51150662	      0.00000000	      0.00000000	    -16.57626204	     -6.31118316	     -7.42787815	     89.90894847	     -6.78091499	     45.77792845	     49.46686734	     79.06184081	      0.00000000	      0.00000000	     89.94469455	    -14.05406145	     44.86269830	     56.37275432	     76.42856961	      0.00000000	      0.00000000
      4.98000000	     -4.67701467	      0.27676010	      3.78797423	     -0.39372984	      0.91687902	     -1.00025913	     57.48624889	     -6.80744856	      4.90860052	     35.08950522	      0.61242740	      7.62794142	      0.00000000	      0.00000000	     43.71007210	      0.21205237	     -7.02998317	     63.41144432	      1.10673849	     11.47034990	      0.00000000	      0.00000000	    -16.52905922	     -6.33520193	     -7.46898999	     89.90866793	     -6.81549242	     45.58831773	     49.40909293	     84.27753370	      0.00000000	      0.00000000	     89.94452387	    -14.12905047	     44.79194505	     56.36340471	     80.84656490	      0.00000000	      0.00000000
      4.98500000	     -4.69112614	      0.32270572	      3.88589237	     -0.39369534	      0.91780305	     -1.00039663	     57.23100050	     -6.86853290	      5.09843669	     34.84727507	      0.60819969	      7.35558916	      0.00000000	      0.00000000	     43.62198954	      0.41221991	     -6.79508518	     63.17408855	      1.10259585	     11.34185369	      0.00000000	      0.00000000	    -16.51438924	     -6.35167601	     -7.52870137	     89.90673060	     -6.80697627	     45.59829296	     49.43703047	     78.88087716	      0.00000000	      0.00000000	     89.94460628	    -14.05388974	     44.99714212	     56.31863006	     76.14766680	      0.00000000	      0.00000000
      4.99000000	     -4.63109126	      0.28287485	      3.83650733	     -0.39341631	      0.91863812	     -1.00019834	     57.10325328	     -6.79595027	      4.91975258	     35.12726078	      0.61308636	      7.41691580	      0.00000000	      0.00000000	     43.43077746	      0.23917478	     -7.03054203	     63.00336773	      1.09961621	     11.30334539	      0.00000000	      0.00000000	    -16.52417749	     -6.33524867	     -7.48881020	     89.90834656	     -6.86815379	     45.77327117	     49.43724720	     83.92123480	      0.00000000	      0.00000000	     89.94418535	    -14.09304024	     44.83978983	     56.22640065	     81.78998102	      0.00000000	      0.00000000
      4.99500000	     -4.60618004	      0.25565705	      3.86929148	     -0.39319746	      0.91951017	     -1.00019985	     56.90355474	     -6.77869189	      4.96326125	     35.17355787	      0.61389439	      7.58742063	      0.00000000	      0.00000000	     43.30296518	      0.22124803	     -7.02784279	     62.83969358	      1.09675955	     11.25550887	      0.00000000	      0.00000000	    -16.54394659	     -6.29016806	     -7.50077851	     89.90789809	     -6.90667281	     45.82635513	     49.45536344	     83.71190525	      0.00000000	      0.00000000	     89.94403984	    -14.10563786	     44.88251490	     56.33161435	     81.00586280	      0.00000000	      0.00000000
